<svg width="33" height="33" viewBox="0 0 33 33" fill="currentColor" xmlns="http://www.w3.org/2000/svg">
<path d="M29.8284 1.48438H3.13892C2.22504 1.48492 1.48419 2.22614 1.48438 3.14038V29.8298C1.48492 30.7437 2.22614 31.4846 3.14038 31.4844H17.5098V19.8828H13.6133V15.3418H17.5098V11.9999C17.5098 8.12451 19.8757 6.01514 23.3327 6.01514C24.9885 6.01514 26.4114 6.13855 26.8262 6.19367V10.2441H24.4423C22.5615 10.2441 22.1973 11.1379 22.1973 12.4496V15.3418H26.6943L26.1084 19.8828H22.1973V31.4844H29.8284C30.7428 31.4846 31.4842 30.7435 31.4844 29.8291C31.4844 29.8289 31.4844 29.8287 31.4844 29.8284V3.13892C31.484 2.22504 30.7426 1.48419 29.8284 1.48438Z" fill="currentColor"/>
</svg>
