<svg width="33" height="33" viewBox="0 0 33 33" fill="currentColor" xmlns="http://www.w3.org/2000/svg">
<g clip-path="url(#clip0_318_1552)">
<path d="M32.4686 9.90809C32.3937 8.2078 32.1187 7.03888 31.7248 6.02598C31.3185 4.95082 30.6934 3.98823 29.8744 3.18802C29.0742 2.37537 28.1052 1.7439 27.0425 1.34391C26.0238 0.950039 24.8609 0.675083 23.1607 0.600117C21.4477 0.518802 20.9039 0.5 16.5593 0.5C12.2147 0.5 11.6709 0.518802 9.96424 0.593768C8.26396 0.668734 7.09503 0.943934 6.08238 1.33757C5.00697 1.7439 4.04438 2.36902 3.24418 3.18802C2.43152 3.98823 1.80029 4.95717 1.40007 6.01988C1.00619 7.03888 0.731235 8.20146 0.65627 9.90174C0.574955 11.6147 0.556152 12.1585 0.556152 16.5031C0.556152 20.8477 0.574955 21.3915 0.649921 23.0982C0.724886 24.7984 1.00009 25.9674 1.39396 26.9803C1.80029 28.0554 2.43152 29.018 3.24418 29.8182C4.04438 30.6309 5.01332 31.2624 6.07603 31.6623C7.09503 32.0562 8.25761 32.3312 9.95814 32.4061C11.6645 32.4813 12.2086 32.4999 16.5532 32.4999C20.8978 32.4999 21.4416 32.4813 23.1482 32.4061C24.8485 32.3312 26.0174 32.0562 27.0301 31.6623C29.1806 30.8309 30.8809 29.1306 31.7124 26.9803C32.106 25.9613 32.3812 24.7984 32.4562 23.0982C32.5311 21.3915 32.55 20.8477 32.55 16.5031C32.55 12.1585 32.5436 11.6147 32.4686 9.90809ZM29.587 22.9731C29.5181 24.5359 29.2556 25.3799 29.0368 25.9425C28.4991 27.3365 27.3927 28.443 25.9986 28.9807C25.436 29.1995 24.586 29.462 23.0293 29.5306C21.3415 29.6058 20.8353 29.6243 16.5656 29.6243C12.296 29.6243 11.7834 29.6058 10.1017 29.5306C8.53891 29.462 7.695 29.1995 7.13239 28.9807C6.43865 28.7243 5.80718 28.3179 5.29463 27.7866C4.76327 27.2677 4.35694 26.6426 4.10055 25.9488C3.88175 25.3862 3.61925 24.5359 3.55063 22.9795C3.47542 21.2917 3.45687 20.7852 3.45687 16.5156C3.45687 12.2459 3.47542 11.7334 3.55063 10.0519C3.61925 8.48911 3.88175 7.64519 4.10055 7.08258C4.35694 6.3886 4.76327 5.75737 5.30098 5.24458C5.81963 4.71323 6.44475 4.3069 7.13874 4.05074C7.70135 3.83195 8.55161 3.56945 10.1081 3.50059C11.7959 3.42562 12.3023 3.40682 16.5717 3.40682C20.8477 3.40682 21.3539 3.42562 23.0356 3.50059C24.5984 3.56945 25.4424 3.83195 26.005 4.05074C26.6987 4.3069 27.3302 4.71323 27.8427 5.24458C28.3741 5.76348 28.7804 6.3886 29.0368 7.08258C29.2556 7.64519 29.5181 8.49521 29.587 10.0519C29.6619 11.7397 29.6807 12.2459 29.6807 16.5156C29.6807 20.7852 29.6619 21.2853 29.587 22.9731Z" fill="currentColor"/>
<path d="M16.5592 8.28271C12.021 8.28271 8.33887 11.9646 8.33887 16.5031C8.33887 21.0416 12.021 24.7234 16.5592 24.7234C21.0977 24.7234 24.7796 21.0416 24.7796 16.5031C24.7796 11.9646 21.0977 8.28271 16.5592 8.28271ZM16.5592 21.8354C13.615 21.8354 11.2269 19.4475 11.2269 16.5031C11.2269 13.5586 13.615 11.1707 16.5592 11.1707C19.5036 11.1707 21.8916 13.5586 21.8916 16.5031C21.8916 19.4475 19.5036 21.8354 16.5592 21.8354Z" fill="currentColor"/>
<path d="M27.0239 7.95765C27.0239 9.01743 26.1646 9.87673 25.1046 9.87673C24.0448 9.87673 23.1855 9.01743 23.1855 7.95765C23.1855 6.89763 24.0448 6.03857 25.1046 6.03857C26.1646 6.03857 27.0239 6.89763 27.0239 7.95765Z" fill="currentColor"/>
</g>
<defs>
<clipPath id="clip0_318_1552">
<rect width="32" height="32" fill="white" transform="translate(0.5 0.5)"/>
</clipPath>
</defs>
</svg>
