<svg width="33" height="33" viewBox="0 0 33 33" fill="currentColor" xmlns="http://www.w3.org/2000/svg">
<path d="M5.1225 2.125C2.92267 2.125 1.48438 3.56952 1.48438 5.46814C1.48438 7.32483 2.87982 8.81055 5.03809 8.81055H5.07983C7.32269 8.81055 8.71851 7.32483 8.71851 5.46814C8.67657 3.56952 7.32269 2.125 5.1225 2.125Z" fill="currentColor"/>
<path d="M1.8645 11.4521H8.29553V30.8002H1.8645V11.4521Z" fill="currentColor"/>
<path d="M24.0806 10.998C20.6113 10.998 18.285 14.2581 18.285 14.2581V11.4521H11.8538V30.8002H18.2846V19.9955C18.2846 19.4171 18.3265 18.8395 18.4965 18.4259C18.9614 17.2709 20.0193 16.0743 21.796 16.0743C24.1231 16.0743 25.0538 17.8486 25.0538 20.4496V30.8002H31.4843V19.7064C31.4843 13.7635 28.3115 10.998 24.0806 10.998Z" fill="currentColor"/>
</svg>
